# xmcd CD database file
#
# Track frame offsets:
#	150
#	20102
#	53702
#	71551
#	93603
#	108524
#	123376
#	154039
#	176580
#	201754
#	229500
#	249562
#	279671
#	312536
#	328506
#
# Disc length: 4712 seconds
#
# Revision: 1
# Processed by: cddbd v1.4PL0 Copyright (c) Steve Scherf et al.
# Submitted via: CDex 1.50beta10
#
DISCID=d612660f
DTITLE=Era - Cathar Rhythm
DYEAR=2002
DGENRE=New Age
TTITLE0=Infanati
TTITLE1=Infinity Ocean
TTITLE2=Avatar
TTITLE3=Sentence
TTITLE4=Cathar Rhythm
TTITLE5=Era
TTITLE6=Wind Love
TTITLE7=Flowers Of The Sea
TTITLE8=Mother (Remix Radio Longve Version)
TTITLE9=Avetino
TTITLE10=Enae Volabre Mezzo
TTITLE11=Without Horizon
TTITLE12=Adajio
TTITLE13=After Time
TTITLE14=Ameno (Hj Remix)
EXTD=YEAR: 2002
EXTT0=
EXTT1=
EXTT2=
EXTT3=
EXTT4=
EXTT5=
EXTT6=
EXTT7=
EXTT8=
EXTT9=
EXTT10=
EXTT11=
EXTT12=
EXTT13=
EXTT14=
PLAYORDER=
